<mxfile host="Electron" agent="Mozilla/5.0 (Windows NT 10.0; Win64; x64) AppleWebKit/537.36 (KHTML, like Gecko) draw.io/25.0.1 Chrome/128.0.6613.186 Electron/32.2.6 Safari/537.36" version="25.0.1">
  <diagram id="R2lEEEUBdFMjLlhIrx00" name="Page-1">
    <mxGraphModel dx="1701" dy="819" grid="1" gridSize="10" guides="1" tooltips="1" connect="1" arrows="1" fold="1" page="1" pageScale="1" pageWidth="850" pageHeight="1100" math="0" shadow="0" extFonts="Permanent Marker^https://fonts.googleapis.com/css?family=Permanent+Marker">
      <root>
        <mxCell id="0" />
        <mxCell id="1" parent="0" />
        <mxCell id="public.cart" value="public.cart" style="shape=table;startSize=30;container=1;collapsible=1;childLayout=tableLayout;fixedRows=1;rowLines=0;fontStyle=1;align=center;resizeLast=1;" parent="1" vertex="1">
          <mxGeometry x="1059.9978065231548" y="230.00048101177094" width="250" height="120" as="geometry" />
        </mxCell>
        <mxCell id="public.cart.1" value="0" style="shape=partialRectangle;collapsible=0;dropTarget=0;pointerEvents=0;fillColor=none;points=[[0,0.5],[1,0.5]];portConstraint=eastwest;top=0;left=0;right=0;bottom=1;" parent="public.cart" vertex="1">
          <mxGeometry y="30" width="250" height="30" as="geometry" />
        </mxCell>
        <mxCell id="bf57038d-33cf-a19b-9d44-ea3351a5f53d" value="PK" style="shape=partialRectangle;overflow=hidden;connectable=0;fillColor=none;top=0;left=0;bottom=0;right=0;fontStyle=1;" parent="public.cart.1" vertex="1">
          <mxGeometry width="30" height="30" as="geometry">
            <mxRectangle width="30" height="30" as="alternateBounds" />
          </mxGeometry>
        </mxCell>
        <mxCell id="498ad664-ac95-0472-8ac2-09fa7c4ec262" value="cart_id integer NOT NULL" style="" parent="public.cart.1" vertex="1">
          <mxGeometry x="30" width="220" height="30" as="geometry">
            <mxRectangle width="220" height="30" as="alternateBounds" />
          </mxGeometry>
        </mxCell>
        <mxCell id="public.cart.2" value="30" style="shape=partialRectangle;collapsible=0;dropTarget=0;pointerEvents=0;fillColor=none;points=[[0,0.5],[1,0.5]];portConstraint=eastwest;top=0;left=0;right=0;bottom=1;" parent="public.cart" vertex="1">
          <mxGeometry y="60" width="250" height="30" as="geometry" />
        </mxCell>
        <mxCell id="ba661cb4-fbc4-4fd0-d4c5-85d83c179bef" value="FK" style="shape=partialRectangle;overflow=hidden;connectable=0;fillColor=none;top=0;left=0;bottom=0;right=0;fontStyle=1;" parent="public.cart.2" vertex="1">
          <mxGeometry width="30" height="30" as="geometry">
            <mxRectangle width="30" height="30" as="alternateBounds" />
          </mxGeometry>
        </mxCell>
        <mxCell id="757bdfb7-4226-4ee2-c3d8-37f7dd76b056" value="client_id integer NOT NULL" style="" parent="public.cart.2" vertex="1">
          <mxGeometry x="30" width="220" height="30" as="geometry">
            <mxRectangle width="220" height="30" as="alternateBounds" />
          </mxGeometry>
        </mxCell>
        <mxCell id="public.cart.3" value="60" style="shape=partialRectangle;collapsible=0;dropTarget=0;pointerEvents=0;fillColor=none;points=[[0,0.5],[1,0.5]];portConstraint=eastwest;top=0;left=0;right=0;bottom=1;" parent="public.cart" vertex="1">
          <mxGeometry y="90" width="250" height="30" as="geometry" />
        </mxCell>
        <mxCell id="285d6ce8-352e-7f33-fdd1-7f2824055fc1" value="" style="shape=partialRectangle;overflow=hidden;connectable=0;fillColor=none;top=0;left=0;bottom=0;right=0;fontStyle=1;" parent="public.cart.3" vertex="1">
          <mxGeometry width="30" height="30" as="geometry">
            <mxRectangle width="30" height="30" as="alternateBounds" />
          </mxGeometry>
        </mxCell>
        <mxCell id="b2781154-0942-c64d-4cf8-3e0ec46c0f2d" value="price numeric NOT NULL" style="" parent="public.cart.3" vertex="1">
          <mxGeometry x="30" width="220" height="30" as="geometry">
            <mxRectangle width="220" height="30" as="alternateBounds" />
          </mxGeometry>
        </mxCell>
        <mxCell id="public.cart_item" value="public.cart_item" style="shape=table;startSize=30;container=1;collapsible=1;childLayout=tableLayout;fixedRows=1;rowLines=0;fontStyle=1;align=center;resizeLast=1;" parent="1" vertex="1">
          <mxGeometry x="1139.9931477485031" y="719.9980456783107" width="250" height="180" as="geometry" />
        </mxCell>
        <mxCell id="public.cart_item.1" value="0" style="shape=partialRectangle;collapsible=0;dropTarget=0;pointerEvents=0;fillColor=none;points=[[0,0.5],[1,0.5]];portConstraint=eastwest;top=0;left=0;right=0;bottom=1;" parent="public.cart_item" vertex="1">
          <mxGeometry y="30" width="250" height="30" as="geometry" />
        </mxCell>
        <mxCell id="3e524775-b62c-7d78-3fc7-d1bd926e9e8d" value="PK" style="shape=partialRectangle;overflow=hidden;connectable=0;fillColor=none;top=0;left=0;bottom=0;right=0;fontStyle=1;" parent="public.cart_item.1" vertex="1">
          <mxGeometry width="30" height="30" as="geometry">
            <mxRectangle width="30" height="30" as="alternateBounds" />
          </mxGeometry>
        </mxCell>
        <mxCell id="4f1f4632-f7a6-c82b-b12e-ebb635b830b6" value="cart_item_id integer NOT NULL" style="" parent="public.cart_item.1" vertex="1">
          <mxGeometry x="30" width="220" height="30" as="geometry">
            <mxRectangle width="220" height="30" as="alternateBounds" />
          </mxGeometry>
        </mxCell>
        <mxCell id="public.cart_item.2" value="30" style="shape=partialRectangle;collapsible=0;dropTarget=0;pointerEvents=0;fillColor=none;points=[[0,0.5],[1,0.5]];portConstraint=eastwest;top=0;left=0;right=0;bottom=1;" parent="public.cart_item" vertex="1">
          <mxGeometry y="60" width="250" height="30" as="geometry" />
        </mxCell>
        <mxCell id="e22417d3-51b4-9ae8-bb1a-0d17b4bf29c5" value="FK" style="shape=partialRectangle;overflow=hidden;connectable=0;fillColor=none;top=0;left=0;bottom=0;right=0;fontStyle=1;" parent="public.cart_item.2" vertex="1">
          <mxGeometry width="30" height="30" as="geometry">
            <mxRectangle width="30" height="30" as="alternateBounds" />
          </mxGeometry>
        </mxCell>
        <mxCell id="232d267e-79ba-ac15-89dd-1379661eff4e" value="cart_id integer NOT NULL" style="" parent="public.cart_item.2" vertex="1">
          <mxGeometry x="30" width="220" height="30" as="geometry">
            <mxRectangle width="220" height="30" as="alternateBounds" />
          </mxGeometry>
        </mxCell>
        <mxCell id="public.cart_item.3" value="60" style="shape=partialRectangle;collapsible=0;dropTarget=0;pointerEvents=0;fillColor=none;points=[[0,0.5],[1,0.5]];portConstraint=eastwest;top=0;left=0;right=0;bottom=1;" parent="public.cart_item" vertex="1">
          <mxGeometry y="90" width="250" height="30" as="geometry" />
        </mxCell>
        <mxCell id="4cbd78a2-aa5f-b5da-6d7b-4c51aaed292c" value="FK" style="shape=partialRectangle;overflow=hidden;connectable=0;fillColor=none;top=0;left=0;bottom=0;right=0;fontStyle=1;" parent="public.cart_item.3" vertex="1">
          <mxGeometry width="30" height="30" as="geometry">
            <mxRectangle width="30" height="30" as="alternateBounds" />
          </mxGeometry>
        </mxCell>
        <mxCell id="4659f86a-2955-198b-6cf2-b4b01ca28c4e" value="product_id integer NOT NULL" style="" parent="public.cart_item.3" vertex="1">
          <mxGeometry x="30" width="220" height="30" as="geometry">
            <mxRectangle width="220" height="30" as="alternateBounds" />
          </mxGeometry>
        </mxCell>
        <mxCell id="public.cart_item.4" value="90" style="shape=partialRectangle;collapsible=0;dropTarget=0;pointerEvents=0;fillColor=none;points=[[0,0.5],[1,0.5]];portConstraint=eastwest;top=0;left=0;right=0;bottom=1;" parent="public.cart_item" vertex="1">
          <mxGeometry y="120" width="250" height="30" as="geometry" />
        </mxCell>
        <mxCell id="00982666-2bcf-26a1-096f-2412135354b2" value="" style="shape=partialRectangle;overflow=hidden;connectable=0;fillColor=none;top=0;left=0;bottom=0;right=0;fontStyle=1;" parent="public.cart_item.4" vertex="1">
          <mxGeometry width="30" height="30" as="geometry">
            <mxRectangle width="30" height="30" as="alternateBounds" />
          </mxGeometry>
        </mxCell>
        <mxCell id="83e2a09b-4282-9cdf-2533-1091b4f16c7d" value="product_quantity integer NOT NULL" style="" parent="public.cart_item.4" vertex="1">
          <mxGeometry x="30" width="220" height="30" as="geometry">
            <mxRectangle width="220" height="30" as="alternateBounds" />
          </mxGeometry>
        </mxCell>
        <mxCell id="public.cart_item.5" value="120" style="shape=partialRectangle;collapsible=0;dropTarget=0;pointerEvents=0;fillColor=none;points=[[0,0.5],[1,0.5]];portConstraint=eastwest;top=0;left=0;right=0;bottom=1;" parent="public.cart_item" vertex="1">
          <mxGeometry y="150" width="250" height="30" as="geometry" />
        </mxCell>
        <mxCell id="bdf86f57-0240-c6d8-6577-60a3598bd1cd" value="" style="shape=partialRectangle;overflow=hidden;connectable=0;fillColor=none;top=0;left=0;bottom=0;right=0;fontStyle=1;" parent="public.cart_item.5" vertex="1">
          <mxGeometry width="30" height="30" as="geometry">
            <mxRectangle width="30" height="30" as="alternateBounds" />
          </mxGeometry>
        </mxCell>
        <mxCell id="db58283c-516a-fb9a-85d2-b39043c1b682" value="product_price numeric NOT NULL" style="" parent="public.cart_item.5" vertex="1">
          <mxGeometry x="30" width="220" height="30" as="geometry">
            <mxRectangle width="220" height="30" as="alternateBounds" />
          </mxGeometry>
        </mxCell>
        <mxCell id="public.client" value="public.client" style="shape=table;startSize=72;container=1;collapsible=1;childLayout=tableLayout;fixedRows=1;rowLines=0;fontStyle=1;align=center;resizeLast=1;" parent="1" vertex="1">
          <mxGeometry x="769.9951907975858" y="279.9986340921356" width="250" height="252" as="geometry" />
        </mxCell>
        <mxCell id="public.client.1" value="0" style="shape=partialRectangle;collapsible=0;dropTarget=0;pointerEvents=0;fillColor=none;points=[[0,0.5],[1,0.5]];portConstraint=eastwest;top=0;left=0;right=0;bottom=1;" parent="public.client" vertex="1">
          <mxGeometry y="72" width="250" height="30" as="geometry" />
        </mxCell>
        <mxCell id="cca76f85-d6a5-900e-3948-b55e4f7d68cc" value="PK" style="shape=partialRectangle;overflow=hidden;connectable=0;fillColor=none;top=0;left=0;bottom=0;right=0;fontStyle=1;" parent="public.client.1" vertex="1">
          <mxGeometry width="30" height="30" as="geometry">
            <mxRectangle width="30" height="30" as="alternateBounds" />
          </mxGeometry>
        </mxCell>
        <mxCell id="89cca741-a77d-c983-8598-9beb140acbee" value="client_id integer NOT NULL" style="" parent="public.client.1" vertex="1">
          <mxGeometry x="30" width="220" height="30" as="geometry">
            <mxRectangle width="220" height="30" as="alternateBounds" />
          </mxGeometry>
        </mxCell>
        <mxCell id="public.client.2" value="30" style="shape=partialRectangle;collapsible=0;dropTarget=0;pointerEvents=0;fillColor=none;points=[[0,0.5],[1,0.5]];portConstraint=eastwest;top=0;left=0;right=0;bottom=1;" parent="public.client" vertex="1">
          <mxGeometry y="102" width="250" height="30" as="geometry" />
        </mxCell>
        <mxCell id="6bc6216a-1818-332b-46a9-893d58e7a1df" value="" style="shape=partialRectangle;overflow=hidden;connectable=0;fillColor=none;top=0;left=0;bottom=0;right=0;fontStyle=1;" parent="public.client.2" vertex="1">
          <mxGeometry width="30" height="30" as="geometry">
            <mxRectangle width="30" height="30" as="alternateBounds" />
          </mxGeometry>
        </mxCell>
        <mxCell id="06848c58-658a-d38d-e9fa-94006f8d403a" value="first_name character varying NOT NULL" style="" parent="public.client.2" vertex="1">
          <mxGeometry x="30" width="220" height="30" as="geometry">
            <mxRectangle width="220" height="30" as="alternateBounds" />
          </mxGeometry>
        </mxCell>
        <mxCell id="public.client.3" value="60" style="shape=partialRectangle;collapsible=0;dropTarget=0;pointerEvents=0;fillColor=none;points=[[0,0.5],[1,0.5]];portConstraint=eastwest;top=0;left=0;right=0;bottom=1;" parent="public.client" vertex="1">
          <mxGeometry y="132" width="250" height="30" as="geometry" />
        </mxCell>
        <mxCell id="ffe5aa31-e3a5-b2d0-70da-e701c7049227" value="" style="shape=partialRectangle;overflow=hidden;connectable=0;fillColor=none;top=0;left=0;bottom=0;right=0;fontStyle=1;" parent="public.client.3" vertex="1">
          <mxGeometry width="30" height="30" as="geometry">
            <mxRectangle width="30" height="30" as="alternateBounds" />
          </mxGeometry>
        </mxCell>
        <mxCell id="86d2efe6-982e-515a-6861-754b2d5efa03" value="last_name character varying NOT NULL" style="" parent="public.client.3" vertex="1">
          <mxGeometry x="30" width="220" height="30" as="geometry">
            <mxRectangle width="220" height="30" as="alternateBounds" />
          </mxGeometry>
        </mxCell>
        <mxCell id="public.client.4" value="90" style="shape=partialRectangle;collapsible=0;dropTarget=0;pointerEvents=0;fillColor=none;points=[[0,0.5],[1,0.5]];portConstraint=eastwest;top=0;left=0;right=0;bottom=1;" parent="public.client" vertex="1">
          <mxGeometry y="162" width="250" height="30" as="geometry" />
        </mxCell>
        <mxCell id="a15cb7ae-8b5d-e2d9-dfee-a05a7e17fe68" value="" style="shape=partialRectangle;overflow=hidden;connectable=0;fillColor=none;top=0;left=0;bottom=0;right=0;fontStyle=1;" parent="public.client.4" vertex="1">
          <mxGeometry width="30" height="30" as="geometry">
            <mxRectangle width="30" height="30" as="alternateBounds" />
          </mxGeometry>
        </mxCell>
        <mxCell id="fa66e5fd-53e1-2bd4-6604-a03ad1968cc6" value="phone character NOT NULL" style="" parent="public.client.4" vertex="1">
          <mxGeometry x="30" width="220" height="30" as="geometry">
            <mxRectangle width="220" height="30" as="alternateBounds" />
          </mxGeometry>
        </mxCell>
        <mxCell id="public.client.5" value="120" style="shape=partialRectangle;collapsible=0;dropTarget=0;pointerEvents=0;fillColor=none;points=[[0,0.5],[1,0.5]];portConstraint=eastwest;top=0;left=0;right=0;bottom=1;" parent="public.client" vertex="1">
          <mxGeometry y="192" width="250" height="30" as="geometry" />
        </mxCell>
        <mxCell id="d4228f72-1541-26b1-207b-e9e1b6a0036c" value="" style="shape=partialRectangle;overflow=hidden;connectable=0;fillColor=none;top=0;left=0;bottom=0;right=0;fontStyle=1;" parent="public.client.5" vertex="1">
          <mxGeometry width="30" height="30" as="geometry">
            <mxRectangle width="30" height="30" as="alternateBounds" />
          </mxGeometry>
        </mxCell>
        <mxCell id="4644241f-dada-c0d8-5ea9-a85beaa1f61d" value="password character varying NOT NULL" style="" parent="public.client.5" vertex="1">
          <mxGeometry x="30" width="220" height="30" as="geometry">
            <mxRectangle width="220" height="30" as="alternateBounds" />
          </mxGeometry>
        </mxCell>
        <mxCell id="public.client.6" value="150" style="shape=partialRectangle;collapsible=0;dropTarget=0;pointerEvents=0;fillColor=none;points=[[0,0.5],[1,0.5]];portConstraint=eastwest;top=0;left=0;right=0;bottom=1;" parent="public.client" vertex="1">
          <mxGeometry y="222" width="250" height="30" as="geometry" />
        </mxCell>
        <mxCell id="f5dd2437-a4eb-94ef-ce73-f2a3c891006e" value="" style="shape=partialRectangle;overflow=hidden;connectable=0;fillColor=none;top=0;left=0;bottom=0;right=0;fontStyle=1;" parent="public.client.6" vertex="1">
          <mxGeometry width="30" height="30" as="geometry">
            <mxRectangle width="30" height="30" as="alternateBounds" />
          </mxGeometry>
        </mxCell>
        <mxCell id="715b543a-fd29-414c-6ed9-cd9549589ba2" value="email character varying NOT NULL" style="" parent="public.client.6" vertex="1">
          <mxGeometry x="30" width="220" height="30" as="geometry">
            <mxRectangle width="220" height="30" as="alternateBounds" />
          </mxGeometry>
        </mxCell>
        <mxCell id="public.discount" value="public.discount" style="shape=table;startSize=30;container=1;collapsible=1;childLayout=tableLayout;fixedRows=1;rowLines=0;fontStyle=1;align=center;resizeLast=1;" parent="1" vertex="1">
          <mxGeometry x="1110" y="920" width="350" height="180" as="geometry" />
        </mxCell>
        <mxCell id="public.discount.1" value="0" style="shape=partialRectangle;collapsible=0;dropTarget=0;pointerEvents=0;fillColor=none;points=[[0,0.5],[1,0.5]];portConstraint=eastwest;top=0;left=0;right=0;bottom=1;" parent="public.discount" vertex="1">
          <mxGeometry y="30" width="350" height="30" as="geometry" />
        </mxCell>
        <mxCell id="7cb32ef6-32ff-e4a8-6c58-7aaf6a207d23" value="PK" style="shape=partialRectangle;overflow=hidden;connectable=0;fillColor=none;top=0;left=0;bottom=0;right=0;fontStyle=1;" parent="public.discount.1" vertex="1">
          <mxGeometry width="30" height="30" as="geometry">
            <mxRectangle width="30" height="30" as="alternateBounds" />
          </mxGeometry>
        </mxCell>
        <mxCell id="4efdf4da-e16e-f475-c87a-841fb924e06e" value="discount_id integer NOT NULL" style="" parent="public.discount.1" vertex="1">
          <mxGeometry x="30" width="320" height="30" as="geometry">
            <mxRectangle width="320" height="30" as="alternateBounds" />
          </mxGeometry>
        </mxCell>
        <mxCell id="public.discount.2" value="30" style="shape=partialRectangle;collapsible=0;dropTarget=0;pointerEvents=0;fillColor=none;points=[[0,0.5],[1,0.5]];portConstraint=eastwest;top=0;left=0;right=0;bottom=1;" parent="public.discount" vertex="1">
          <mxGeometry y="60" width="350" height="30" as="geometry" />
        </mxCell>
        <mxCell id="2f65a6c1-747f-a19c-4690-2758340c0808" value="" style="shape=partialRectangle;overflow=hidden;connectable=0;fillColor=none;top=0;left=0;bottom=0;right=0;fontStyle=1;" parent="public.discount.2" vertex="1">
          <mxGeometry width="30" height="30" as="geometry">
            <mxRectangle width="30" height="30" as="alternateBounds" />
          </mxGeometry>
        </mxCell>
        <mxCell id="f75b6bb8-45a6-63c3-d9e5-0388d309e095" value="description character varying NOT NULL" style="" parent="public.discount.2" vertex="1">
          <mxGeometry x="30" width="320" height="30" as="geometry">
            <mxRectangle width="320" height="30" as="alternateBounds" />
          </mxGeometry>
        </mxCell>
        <mxCell id="public.discount.3" value="60" style="shape=partialRectangle;collapsible=0;dropTarget=0;pointerEvents=0;fillColor=none;points=[[0,0.5],[1,0.5]];portConstraint=eastwest;top=0;left=0;right=0;bottom=1;" parent="public.discount" vertex="1">
          <mxGeometry y="90" width="350" height="30" as="geometry" />
        </mxCell>
        <mxCell id="8d8cf0d2-a1b8-bb1a-6a57-8f8b12e5d67c" value="" style="shape=partialRectangle;overflow=hidden;connectable=0;fillColor=none;top=0;left=0;bottom=0;right=0;fontStyle=1;" parent="public.discount.3" vertex="1">
          <mxGeometry width="30" height="30" as="geometry">
            <mxRectangle width="30" height="30" as="alternateBounds" />
          </mxGeometry>
        </mxCell>
        <mxCell id="c4bdd223-b0f6-9107-3704-b9a9ab3b4ce0" value="name character varying NOT NULL" style="" parent="public.discount.3" vertex="1">
          <mxGeometry x="30" width="320" height="30" as="geometry">
            <mxRectangle width="320" height="30" as="alternateBounds" />
          </mxGeometry>
        </mxCell>
        <mxCell id="public.discount.4" value="90" style="shape=partialRectangle;collapsible=0;dropTarget=0;pointerEvents=0;fillColor=none;points=[[0,0.5],[1,0.5]];portConstraint=eastwest;top=0;left=0;right=0;bottom=1;" parent="public.discount" vertex="1">
          <mxGeometry y="120" width="350" height="30" as="geometry" />
        </mxCell>
        <mxCell id="6c31d63e-d00e-4d1b-cc39-fc345fe155ed" value="" style="shape=partialRectangle;overflow=hidden;connectable=0;fillColor=none;top=0;left=0;bottom=0;right=0;fontStyle=1;" parent="public.discount.4" vertex="1">
          <mxGeometry width="30" height="30" as="geometry">
            <mxRectangle width="30" height="30" as="alternateBounds" />
          </mxGeometry>
        </mxCell>
        <mxCell id="7ba31db8-2e2e-83dd-9ca7-32d1635db4f8" value="percent integer NOT NULL" style="" parent="public.discount.4" vertex="1">
          <mxGeometry x="30" width="320" height="30" as="geometry">
            <mxRectangle width="320" height="30" as="alternateBounds" />
          </mxGeometry>
        </mxCell>
        <mxCell id="public.discount.5" value="120" style="shape=partialRectangle;collapsible=0;dropTarget=0;pointerEvents=0;fillColor=none;points=[[0,0.5],[1,0.5]];portConstraint=eastwest;top=0;left=0;right=0;bottom=1;" parent="public.discount" vertex="1">
          <mxGeometry y="150" width="350" height="30" as="geometry" />
        </mxCell>
        <mxCell id="35fa6e53-9037-1534-753b-dd7c259c065c" value="" style="shape=partialRectangle;overflow=hidden;connectable=0;fillColor=none;top=0;left=0;bottom=0;right=0;fontStyle=1;" parent="public.discount.5" vertex="1">
          <mxGeometry width="30" height="30" as="geometry">
            <mxRectangle width="30" height="30" as="alternateBounds" />
          </mxGeometry>
        </mxCell>
        <mxCell id="84b2a3fb-2c17-38f3-d1c0-c280a219e9db" value="is_active boolean NOT NULL" style="" parent="public.discount.5" vertex="1">
          <mxGeometry x="30" width="320" height="30" as="geometry">
            <mxRectangle width="320" height="30" as="alternateBounds" />
          </mxGeometry>
        </mxCell>
        <mxCell id="public.employee" value="public.employee" style="shape=table;startSize=30;container=1;collapsible=1;childLayout=tableLayout;fixedRows=1;rowLines=0;fontStyle=1;align=center;resizeLast=1;" parent="1" vertex="1">
          <mxGeometry x="425" y="840" width="330" height="300" as="geometry" />
        </mxCell>
        <mxCell id="public.employee.1" value="0" style="shape=partialRectangle;collapsible=0;dropTarget=0;pointerEvents=0;fillColor=none;points=[[0,0.5],[1,0.5]];portConstraint=eastwest;top=0;left=0;right=0;bottom=1;" parent="public.employee" vertex="1">
          <mxGeometry y="30" width="330" height="30" as="geometry" />
        </mxCell>
        <mxCell id="858c41d1-e157-5eaf-2593-0f90bf880b73" value="PK" style="shape=partialRectangle;overflow=hidden;connectable=0;fillColor=none;top=0;left=0;bottom=0;right=0;fontStyle=1;" parent="public.employee.1" vertex="1">
          <mxGeometry width="30" height="30" as="geometry">
            <mxRectangle width="30" height="30" as="alternateBounds" />
          </mxGeometry>
        </mxCell>
        <mxCell id="16307c8e-de6d-7e75-ad14-b7c4743655b1" value="employee_id integer NOT NULL" style="" parent="public.employee.1" vertex="1">
          <mxGeometry x="30" width="300" height="30" as="geometry">
            <mxRectangle width="300" height="30" as="alternateBounds" />
          </mxGeometry>
        </mxCell>
        <mxCell id="public.employee.2" value="30" style="shape=partialRectangle;collapsible=0;dropTarget=0;pointerEvents=0;fillColor=none;points=[[0,0.5],[1,0.5]];portConstraint=eastwest;top=0;left=0;right=0;bottom=1;" parent="public.employee" vertex="1">
          <mxGeometry y="60" width="330" height="30" as="geometry" />
        </mxCell>
        <mxCell id="fd353e33-8761-41ea-ad90-0798b3254240" value="FK" style="shape=partialRectangle;overflow=hidden;connectable=0;fillColor=none;top=0;left=0;bottom=0;right=0;fontStyle=1;" parent="public.employee.2" vertex="1">
          <mxGeometry width="30" height="30" as="geometry">
            <mxRectangle width="30" height="30" as="alternateBounds" />
          </mxGeometry>
        </mxCell>
        <mxCell id="e1598b5b-f9d4-f099-31a5-ab2309e8153a" value="employee_role_id integer NOT NULL" style="" parent="public.employee.2" vertex="1">
          <mxGeometry x="30" width="300" height="30" as="geometry">
            <mxRectangle width="300" height="30" as="alternateBounds" />
          </mxGeometry>
        </mxCell>
        <mxCell id="public.employee.4" value="90" style="shape=partialRectangle;collapsible=0;dropTarget=0;pointerEvents=0;fillColor=none;points=[[0,0.5],[1,0.5]];portConstraint=eastwest;top=0;left=0;right=0;bottom=1;" parent="public.employee" vertex="1">
          <mxGeometry y="90" width="330" height="30" as="geometry" />
        </mxCell>
        <mxCell id="22ecd119-8c2c-387f-75f7-a14fa6e64e18" value="" style="shape=partialRectangle;overflow=hidden;connectable=0;fillColor=none;top=0;left=0;bottom=0;right=0;fontStyle=1;" parent="public.employee.4" vertex="1">
          <mxGeometry width="30" height="30" as="geometry">
            <mxRectangle width="30" height="30" as="alternateBounds" />
          </mxGeometry>
        </mxCell>
        <mxCell id="e3dfe79c-1a15-36d5-2e41-e2a6f60c72ff" value="last_name character varying NOT NULL" style="" parent="public.employee.4" vertex="1">
          <mxGeometry x="30" width="300" height="30" as="geometry">
            <mxRectangle width="300" height="30" as="alternateBounds" />
          </mxGeometry>
        </mxCell>
        <mxCell id="public.employee.5" value="120" style="shape=partialRectangle;collapsible=0;dropTarget=0;pointerEvents=0;fillColor=none;points=[[0,0.5],[1,0.5]];portConstraint=eastwest;top=0;left=0;right=0;bottom=1;" parent="public.employee" vertex="1">
          <mxGeometry y="120" width="330" height="30" as="geometry" />
        </mxCell>
        <mxCell id="80bc8d67-091d-9e47-8600-1dfe659e0060" value="" style="shape=partialRectangle;overflow=hidden;connectable=0;fillColor=none;top=0;left=0;bottom=0;right=0;fontStyle=1;" parent="public.employee.5" vertex="1">
          <mxGeometry width="30" height="30" as="geometry">
            <mxRectangle width="30" height="30" as="alternateBounds" />
          </mxGeometry>
        </mxCell>
        <mxCell id="ef337b2f-1b3d-dfc9-1fa9-d33afa5c9a2c" value="salary numeric NOT NULL" style="" parent="public.employee.5" vertex="1">
          <mxGeometry x="30" width="300" height="30" as="geometry">
            <mxRectangle width="300" height="30" as="alternateBounds" />
          </mxGeometry>
        </mxCell>
        <mxCell id="public.employee.6" value="150" style="shape=partialRectangle;collapsible=0;dropTarget=0;pointerEvents=0;fillColor=none;points=[[0,0.5],[1,0.5]];portConstraint=eastwest;top=0;left=0;right=0;bottom=1;" parent="public.employee" vertex="1">
          <mxGeometry y="150" width="330" height="30" as="geometry" />
        </mxCell>
        <mxCell id="7e1d2a46-d3ba-3c6b-cfc8-f1992cf1b9dc" value="" style="shape=partialRectangle;overflow=hidden;connectable=0;fillColor=none;top=0;left=0;bottom=0;right=0;fontStyle=1;" parent="public.employee.6" vertex="1">
          <mxGeometry width="30" height="30" as="geometry">
            <mxRectangle width="30" height="30" as="alternateBounds" />
          </mxGeometry>
        </mxCell>
        <mxCell id="dae3c538-b210-c2ab-ffcc-c5c838067c9d" value="phone character NOT NULL" style="" parent="public.employee.6" vertex="1">
          <mxGeometry x="30" width="300" height="30" as="geometry">
            <mxRectangle width="300" height="30" as="alternateBounds" />
          </mxGeometry>
        </mxCell>
        <mxCell id="public.employee.7" value="180" style="shape=partialRectangle;collapsible=0;dropTarget=0;pointerEvents=0;fillColor=none;points=[[0,0.5],[1,0.5]];portConstraint=eastwest;top=0;left=0;right=0;bottom=1;" parent="public.employee" vertex="1">
          <mxGeometry y="180" width="330" height="30" as="geometry" />
        </mxCell>
        <mxCell id="f9b93a08-5970-fa96-fc9a-40b05c2429d6" value="" style="shape=partialRectangle;overflow=hidden;connectable=0;fillColor=none;top=0;left=0;bottom=0;right=0;fontStyle=1;" parent="public.employee.7" vertex="1">
          <mxGeometry width="30" height="30" as="geometry">
            <mxRectangle width="30" height="30" as="alternateBounds" />
          </mxGeometry>
        </mxCell>
        <mxCell id="0b6f5b43-9fad-3cf2-651e-b8d8d017a70a" value="position character varying NOT NULL" style="" parent="public.employee.7" vertex="1">
          <mxGeometry x="30" width="300" height="30" as="geometry">
            <mxRectangle width="300" height="30" as="alternateBounds" />
          </mxGeometry>
        </mxCell>
        <mxCell id="public.employee.8" value="210" style="shape=partialRectangle;collapsible=0;dropTarget=0;pointerEvents=0;fillColor=none;points=[[0,0.5],[1,0.5]];portConstraint=eastwest;top=0;left=0;right=0;bottom=1;" parent="public.employee" vertex="1">
          <mxGeometry y="210" width="330" height="30" as="geometry" />
        </mxCell>
        <mxCell id="d2535819-e1ee-4011-99f4-19aaf12ed5d6" value="" style="shape=partialRectangle;overflow=hidden;connectable=0;fillColor=none;top=0;left=0;bottom=0;right=0;fontStyle=1;" parent="public.employee.8" vertex="1">
          <mxGeometry width="30" height="30" as="geometry">
            <mxRectangle width="30" height="30" as="alternateBounds" />
          </mxGeometry>
        </mxCell>
        <mxCell id="62fd47ff-2333-9723-ac91-5f020b4f1021" value="password character varying NOT NULL" style="" parent="public.employee.8" vertex="1">
          <mxGeometry x="30" width="300" height="30" as="geometry">
            <mxRectangle width="300" height="30" as="alternateBounds" />
          </mxGeometry>
        </mxCell>
        <mxCell id="public.employee.3" value="60" style="shape=partialRectangle;collapsible=0;dropTarget=0;pointerEvents=0;fillColor=none;points=[[0,0.5],[1,0.5]];portConstraint=eastwest;top=0;left=0;right=0;bottom=1;" parent="public.employee" vertex="1">
          <mxGeometry y="240" width="330" height="30" as="geometry" />
        </mxCell>
        <mxCell id="12e6c64d-e35d-438d-48a3-ab13caa2e0b7" value="" style="shape=partialRectangle;overflow=hidden;connectable=0;fillColor=none;top=0;left=0;bottom=0;right=0;fontStyle=1;" parent="public.employee.3" vertex="1">
          <mxGeometry width="30" height="30" as="geometry">
            <mxRectangle width="30" height="30" as="alternateBounds" />
          </mxGeometry>
        </mxCell>
        <mxCell id="3c0b91f2-8a56-ca8a-63ab-5ebe1e2cf393" value="first_name character varying NOT NULL" style="" parent="public.employee.3" vertex="1">
          <mxGeometry x="30" width="300" height="30" as="geometry">
            <mxRectangle width="300" height="30" as="alternateBounds" />
          </mxGeometry>
        </mxCell>
        <mxCell id="public.employee.9" value="240" style="shape=partialRectangle;collapsible=0;dropTarget=0;pointerEvents=0;fillColor=none;points=[[0,0.5],[1,0.5]];portConstraint=eastwest;top=0;left=0;right=0;bottom=1;" parent="public.employee" vertex="1">
          <mxGeometry y="270" width="330" height="30" as="geometry" />
        </mxCell>
        <mxCell id="e57ef86b-ac1b-906c-8645-9374d7a1c1de" value="" style="shape=partialRectangle;overflow=hidden;connectable=0;fillColor=none;top=0;left=0;bottom=0;right=0;fontStyle=1;" parent="public.employee.9" vertex="1">
          <mxGeometry width="30" height="30" as="geometry">
            <mxRectangle width="30" height="30" as="alternateBounds" />
          </mxGeometry>
        </mxCell>
        <object label="email character varying NOT NULL" id="5d7658c4-c535-8e05-d3da-c72418b744b3">
          <mxCell style="" parent="public.employee.9" vertex="1">
            <mxGeometry x="30" width="300" height="30" as="geometry">
              <mxRectangle width="300" height="30" as="alternateBounds" />
            </mxGeometry>
          </mxCell>
        </object>
        <mxCell id="public.employee_role" value="public.employee_role" style="shape=table;startSize=30;container=1;collapsible=1;childLayout=tableLayout;fixedRows=1;rowLines=0;fontStyle=1;align=center;resizeLast=1;" parent="1" vertex="1">
          <mxGeometry x="809.9998470168152" y="1130.0049266388116" width="250" height="90" as="geometry" />
        </mxCell>
        <mxCell id="public.employee_role.1" value="0" style="shape=partialRectangle;collapsible=0;dropTarget=0;pointerEvents=0;fillColor=none;points=[[0,0.5],[1,0.5]];portConstraint=eastwest;top=0;left=0;right=0;bottom=1;" parent="public.employee_role" vertex="1">
          <mxGeometry y="30" width="250" height="30" as="geometry" />
        </mxCell>
        <mxCell id="cb473bbe-aebc-c88e-40dd-b046f438ac8d" value="PK" style="shape=partialRectangle;overflow=hidden;connectable=0;fillColor=none;top=0;left=0;bottom=0;right=0;fontStyle=1;" parent="public.employee_role.1" vertex="1">
          <mxGeometry width="30" height="30" as="geometry">
            <mxRectangle width="30" height="30" as="alternateBounds" />
          </mxGeometry>
        </mxCell>
        <mxCell id="c501dd28-7fbf-d606-5b71-a8c7cb8b8384" value="employee_role_id integer NOT NULL" style="" parent="public.employee_role.1" vertex="1">
          <mxGeometry x="30" width="220" height="30" as="geometry">
            <mxRectangle width="220" height="30" as="alternateBounds" />
          </mxGeometry>
        </mxCell>
        <mxCell id="public.employee_role.2" value="30" style="shape=partialRectangle;collapsible=0;dropTarget=0;pointerEvents=0;fillColor=none;points=[[0,0.5],[1,0.5]];portConstraint=eastwest;top=0;left=0;right=0;bottom=1;" parent="public.employee_role" vertex="1">
          <mxGeometry y="60" width="250" height="30" as="geometry" />
        </mxCell>
        <mxCell id="498f75fa-70ea-f8ec-265f-7f034966303e" value="" style="shape=partialRectangle;overflow=hidden;connectable=0;fillColor=none;top=0;left=0;bottom=0;right=0;fontStyle=1;" parent="public.employee_role.2" vertex="1">
          <mxGeometry width="30" height="30" as="geometry">
            <mxRectangle width="30" height="30" as="alternateBounds" />
          </mxGeometry>
        </mxCell>
        <mxCell id="890fa3c3-bbb1-7fa7-59c7-9e3710e28409" value="name character varying NOT NULL" style="" parent="public.employee_role.2" vertex="1">
          <mxGeometry x="30" width="220" height="30" as="geometry">
            <mxRectangle width="220" height="30" as="alternateBounds" />
          </mxGeometry>
        </mxCell>
        <mxCell id="public.order" value="public.order" style="shape=table;startSize=30;container=1;collapsible=1;childLayout=tableLayout;fixedRows=1;rowLines=0;fontStyle=1;align=center;resizeLast=1;" parent="1" vertex="1">
          <mxGeometry x="790" y="550" width="290" height="150" as="geometry" />
        </mxCell>
        <mxCell id="public.order.1" value="0" style="shape=partialRectangle;collapsible=0;dropTarget=0;pointerEvents=0;fillColor=none;points=[[0,0.5],[1,0.5]];portConstraint=eastwest;top=0;left=0;right=0;bottom=1;" parent="public.order" vertex="1">
          <mxGeometry y="30" width="290" height="30" as="geometry" />
        </mxCell>
        <mxCell id="8d0b7dd8-8297-8394-61cd-f69f5345d4ad" value="PK" style="shape=partialRectangle;overflow=hidden;connectable=0;fillColor=none;top=0;left=0;bottom=0;right=0;fontStyle=1;" parent="public.order.1" vertex="1">
          <mxGeometry width="30" height="30" as="geometry">
            <mxRectangle width="30" height="30" as="alternateBounds" />
          </mxGeometry>
        </mxCell>
        <mxCell id="4200548e-fd73-48ae-0464-061ff521ca18" value="order_id integer NOT NULL" style="" parent="public.order.1" vertex="1">
          <mxGeometry x="30" width="260" height="30" as="geometry">
            <mxRectangle width="260" height="30" as="alternateBounds" />
          </mxGeometry>
        </mxCell>
        <mxCell id="public.order.2" value="30" style="shape=partialRectangle;collapsible=0;dropTarget=0;pointerEvents=0;fillColor=none;points=[[0,0.5],[1,0.5]];portConstraint=eastwest;top=0;left=0;right=0;bottom=1;" parent="public.order" vertex="1">
          <mxGeometry y="60" width="290" height="30" as="geometry" />
        </mxCell>
        <mxCell id="c73a25fa-9119-b1cf-ce5b-a2147b75ccc8" value="FK" style="shape=partialRectangle;overflow=hidden;connectable=0;fillColor=none;top=0;left=0;bottom=0;right=0;fontStyle=1;" parent="public.order.2" vertex="1">
          <mxGeometry width="30" height="30" as="geometry">
            <mxRectangle width="30" height="30" as="alternateBounds" />
          </mxGeometry>
        </mxCell>
        <mxCell id="f6e2af89-495f-25f9-94f3-80039e308db5" value="client_id integer NOT NULL" style="" parent="public.order.2" vertex="1">
          <mxGeometry x="30" width="260" height="30" as="geometry">
            <mxRectangle width="260" height="30" as="alternateBounds" />
          </mxGeometry>
        </mxCell>
        <mxCell id="public.order.3" value="60" style="shape=partialRectangle;collapsible=0;dropTarget=0;pointerEvents=0;fillColor=none;points=[[0,0.5],[1,0.5]];portConstraint=eastwest;top=0;left=0;right=0;bottom=1;" parent="public.order" vertex="1">
          <mxGeometry y="90" width="290" height="30" as="geometry" />
        </mxCell>
        <mxCell id="fc20e9b7-88a8-5abf-6d0f-f68050cf6d64" value="" style="shape=partialRectangle;overflow=hidden;connectable=0;fillColor=none;top=0;left=0;bottom=0;right=0;fontStyle=1;" parent="public.order.3" vertex="1">
          <mxGeometry width="30" height="30" as="geometry">
            <mxRectangle width="30" height="30" as="alternateBounds" />
          </mxGeometry>
        </mxCell>
        <mxCell id="f11cd250-9a90-da36-a292-d62ab4238d38" value="date timestamp without time zone NOT NULL" style="" parent="public.order.3" vertex="1">
          <mxGeometry x="30" width="260" height="30" as="geometry">
            <mxRectangle width="260" height="30" as="alternateBounds" />
          </mxGeometry>
        </mxCell>
        <mxCell id="public.order.4" value="90" style="shape=partialRectangle;collapsible=0;dropTarget=0;pointerEvents=0;fillColor=none;points=[[0,0.5],[1,0.5]];portConstraint=eastwest;top=0;left=0;right=0;bottom=1;" parent="public.order" vertex="1">
          <mxGeometry y="120" width="290" height="30" as="geometry" />
        </mxCell>
        <mxCell id="69fb788d-a3d2-2793-28a0-f442a34136b2" value="" style="shape=partialRectangle;overflow=hidden;connectable=0;fillColor=none;top=0;left=0;bottom=0;right=0;fontStyle=1;" parent="public.order.4" vertex="1">
          <mxGeometry width="30" height="30" as="geometry">
            <mxRectangle width="30" height="30" as="alternateBounds" />
          </mxGeometry>
        </mxCell>
        <mxCell id="c0d86a66-fb3c-7823-96f4-f3f454ab24b0" value="price numeric NOT NULL" style="" parent="public.order.4" vertex="1">
          <mxGeometry x="30" width="260" height="30" as="geometry">
            <mxRectangle width="260" height="30" as="alternateBounds" />
          </mxGeometry>
        </mxCell>
        <mxCell id="public.order_item" value="public.order_item" style="shape=table;startSize=30;container=1;collapsible=1;childLayout=tableLayout;fixedRows=1;rowLines=0;fontStyle=1;align=center;resizeLast=1;" parent="1" vertex="1">
          <mxGeometry x="1139.9975956466292" y="429.99574878625594" width="250" height="275.02425121374426" as="geometry" />
        </mxCell>
        <mxCell id="public.order_item.1" value="0" style="shape=partialRectangle;collapsible=0;dropTarget=0;pointerEvents=0;fillColor=none;points=[[0,0.5],[1,0.5]];portConstraint=eastwest;top=0;left=0;right=0;bottom=1;" parent="public.order_item" vertex="1">
          <mxGeometry y="30" width="250" height="125" as="geometry" />
        </mxCell>
        <mxCell id="09a1e162-dfc8-4ebc-c6f5-7b16b651cf2f" value="PK" style="shape=partialRectangle;overflow=hidden;connectable=0;fillColor=none;top=0;left=0;bottom=0;right=0;fontStyle=1;" parent="public.order_item.1" vertex="1">
          <mxGeometry width="30" height="125" as="geometry">
            <mxRectangle width="30" height="125" as="alternateBounds" />
          </mxGeometry>
        </mxCell>
        <mxCell id="f6f0ea92-0ca7-679d-8459-19c5305ea954" value="order_item_id integer NOT NULL" style="" parent="public.order_item.1" vertex="1">
          <mxGeometry x="30" width="220" height="125" as="geometry">
            <mxRectangle width="220" height="125" as="alternateBounds" />
          </mxGeometry>
        </mxCell>
        <mxCell id="public.order_item.2" value="30" style="shape=partialRectangle;collapsible=0;dropTarget=0;pointerEvents=0;fillColor=none;points=[[0,0.5],[1,0.5]];portConstraint=eastwest;top=0;left=0;right=0;bottom=1;" parent="public.order_item" vertex="1">
          <mxGeometry y="155" width="250" height="30" as="geometry" />
        </mxCell>
        <mxCell id="b530267e-b989-a114-c0a2-0941253268e5" value="FK" style="shape=partialRectangle;overflow=hidden;connectable=0;fillColor=none;top=0;left=0;bottom=0;right=0;fontStyle=1;" parent="public.order_item.2" vertex="1">
          <mxGeometry width="30" height="30" as="geometry">
            <mxRectangle width="30" height="30" as="alternateBounds" />
          </mxGeometry>
        </mxCell>
        <mxCell id="c4e2367b-384a-2654-8f92-8e82678455f8" value="order_id integer NOT NULL" style="" parent="public.order_item.2" vertex="1">
          <mxGeometry x="30" width="220" height="30" as="geometry">
            <mxRectangle width="220" height="30" as="alternateBounds" />
          </mxGeometry>
        </mxCell>
        <mxCell id="public.order_item.3" value="60" style="shape=partialRectangle;collapsible=0;dropTarget=0;pointerEvents=0;fillColor=none;points=[[0,0.5],[1,0.5]];portConstraint=eastwest;top=0;left=0;right=0;bottom=1;" parent="public.order_item" vertex="1">
          <mxGeometry y="185" width="250" height="30" as="geometry" />
        </mxCell>
        <mxCell id="6f0a52b1-03b8-68b9-f02a-5777c36824ab" value="FK" style="shape=partialRectangle;overflow=hidden;connectable=0;fillColor=none;top=0;left=0;bottom=0;right=0;fontStyle=1;" parent="public.order_item.3" vertex="1">
          <mxGeometry width="30" height="30" as="geometry">
            <mxRectangle width="30" height="30" as="alternateBounds" />
          </mxGeometry>
        </mxCell>
        <mxCell id="cad9ef57-7eb0-0544-eb1b-1a28daff8f7c" value="product_id integer NOT NULL" style="" parent="public.order_item.3" vertex="1">
          <mxGeometry x="30" width="220" height="30" as="geometry">
            <mxRectangle width="220" height="30" as="alternateBounds" />
          </mxGeometry>
        </mxCell>
        <mxCell id="public.order_item.4" value="90" style="shape=partialRectangle;collapsible=0;dropTarget=0;pointerEvents=0;fillColor=none;points=[[0,0.5],[1,0.5]];portConstraint=eastwest;top=0;left=0;right=0;bottom=1;" parent="public.order_item" vertex="1">
          <mxGeometry y="215" width="250" height="30" as="geometry" />
        </mxCell>
        <mxCell id="0acf75ab-ed7b-8ba7-731a-fe39ae8bd732" value="" style="shape=partialRectangle;overflow=hidden;connectable=0;fillColor=none;top=0;left=0;bottom=0;right=0;fontStyle=1;" parent="public.order_item.4" vertex="1">
          <mxGeometry width="30" height="30" as="geometry">
            <mxRectangle width="30" height="30" as="alternateBounds" />
          </mxGeometry>
        </mxCell>
        <mxCell id="093693e0-5095-d9ce-8a61-0e0fdef52832" value="product_quantity integer NOT NULL" style="" parent="public.order_item.4" vertex="1">
          <mxGeometry x="30" width="220" height="30" as="geometry">
            <mxRectangle width="220" height="30" as="alternateBounds" />
          </mxGeometry>
        </mxCell>
        <mxCell id="public.order_item.5" value="120" style="shape=partialRectangle;collapsible=0;dropTarget=0;pointerEvents=0;fillColor=none;points=[[0,0.5],[1,0.5]];portConstraint=eastwest;top=0;left=0;right=0;bottom=1;" parent="public.order_item" vertex="1">
          <mxGeometry y="245" width="250" height="30" as="geometry" />
        </mxCell>
        <mxCell id="390f0ba6-2da6-c474-1fb8-18068e9227f5" value="" style="shape=partialRectangle;overflow=hidden;connectable=0;fillColor=none;top=0;left=0;bottom=0;right=0;fontStyle=1;" parent="public.order_item.5" vertex="1">
          <mxGeometry width="30" height="30" as="geometry">
            <mxRectangle width="30" height="30" as="alternateBounds" />
          </mxGeometry>
        </mxCell>
        <mxCell id="f8105e37-7919-1ac3-3d06-0e79aa6abb30" value="product_price numeric NOT NULL" style="" parent="public.order_item.5" vertex="1">
          <mxGeometry x="30" width="220" height="30" as="geometry">
            <mxRectangle width="220" height="30" as="alternateBounds" />
          </mxGeometry>
        </mxCell>
        <mxCell id="public.product" value="public.product" style="shape=table;startSize=30;container=1;collapsible=1;childLayout=tableLayout;fixedRows=1;rowLines=0;fontStyle=1;align=center;resizeLast=1;" parent="1" vertex="1">
          <mxGeometry x="799.995827630159" y="720.0007950282104" width="250" height="270" as="geometry" />
        </mxCell>
        <mxCell id="public.product.1" value="0" style="shape=partialRectangle;collapsible=0;dropTarget=0;pointerEvents=0;fillColor=none;points=[[0,0.5],[1,0.5]];portConstraint=eastwest;top=0;left=0;right=0;bottom=1;" parent="public.product" vertex="1">
          <mxGeometry y="30" width="250" height="30" as="geometry" />
        </mxCell>
        <mxCell id="188d5e99-dea0-b4a4-70ec-4e8f5044d2bd" value="PK" style="shape=partialRectangle;overflow=hidden;connectable=0;fillColor=none;top=0;left=0;bottom=0;right=0;fontStyle=1;" parent="public.product.1" vertex="1">
          <mxGeometry width="30" height="30" as="geometry">
            <mxRectangle width="30" height="30" as="alternateBounds" />
          </mxGeometry>
        </mxCell>
        <mxCell id="f089610b-6e14-eabc-12bb-38d0be354fd5" value="product_id integer NOT NULL" style="" parent="public.product.1" vertex="1">
          <mxGeometry x="30" width="220" height="30" as="geometry">
            <mxRectangle width="220" height="30" as="alternateBounds" />
          </mxGeometry>
        </mxCell>
        <mxCell id="public.product.2" value="30" style="shape=partialRectangle;collapsible=0;dropTarget=0;pointerEvents=0;fillColor=none;points=[[0,0.5],[1,0.5]];portConstraint=eastwest;top=0;left=0;right=0;bottom=1;" parent="public.product" vertex="1">
          <mxGeometry y="60" width="250" height="30" as="geometry" />
        </mxCell>
        <mxCell id="441ab00c-d0eb-6a35-1db7-cace5e3b0e42" value="FK" style="shape=partialRectangle;overflow=hidden;connectable=0;fillColor=none;top=0;left=0;bottom=0;right=0;fontStyle=1;" parent="public.product.2" vertex="1">
          <mxGeometry width="30" height="30" as="geometry">
            <mxRectangle width="30" height="30" as="alternateBounds" />
          </mxGeometry>
        </mxCell>
        <mxCell id="924c01ac-7213-180a-d202-a11b1382ff4b" value="product_category_id integer NOT NULL" style="" parent="public.product.2" vertex="1">
          <mxGeometry x="30" width="220" height="30" as="geometry">
            <mxRectangle width="220" height="30" as="alternateBounds" />
          </mxGeometry>
        </mxCell>
        <mxCell id="public.product.3" value="60" style="shape=partialRectangle;collapsible=0;dropTarget=0;pointerEvents=0;fillColor=none;points=[[0,0.5],[1,0.5]];portConstraint=eastwest;top=0;left=0;right=0;bottom=1;" parent="public.product" vertex="1">
          <mxGeometry y="90" width="250" height="30" as="geometry" />
        </mxCell>
        <mxCell id="d6ac4b01-4a2f-51bb-71e7-f6f0b4bb1e29" value="" style="shape=partialRectangle;overflow=hidden;connectable=0;fillColor=none;top=0;left=0;bottom=0;right=0;fontStyle=1;" parent="public.product.3" vertex="1">
          <mxGeometry width="30" height="30" as="geometry">
            <mxRectangle width="30" height="30" as="alternateBounds" />
          </mxGeometry>
        </mxCell>
        <mxCell id="c56fd617-5ae6-5ded-1809-13b89bfa7459" value="price numeric NOT NULL" style="" parent="public.product.3" vertex="1">
          <mxGeometry x="30" width="220" height="30" as="geometry">
            <mxRectangle width="220" height="30" as="alternateBounds" />
          </mxGeometry>
        </mxCell>
        <mxCell id="public.product.4" value="90" style="shape=partialRectangle;collapsible=0;dropTarget=0;pointerEvents=0;fillColor=none;points=[[0,0.5],[1,0.5]];portConstraint=eastwest;top=0;left=0;right=0;bottom=1;" parent="public.product" vertex="1">
          <mxGeometry y="120" width="250" height="30" as="geometry" />
        </mxCell>
        <mxCell id="7f491b8d-9314-ce34-2d8f-a752297265e8" value="" style="shape=partialRectangle;overflow=hidden;connectable=0;fillColor=none;top=0;left=0;bottom=0;right=0;fontStyle=1;" parent="public.product.4" vertex="1">
          <mxGeometry width="30" height="30" as="geometry">
            <mxRectangle width="30" height="30" as="alternateBounds" />
          </mxGeometry>
        </mxCell>
        <mxCell id="d1deb6df-f073-8759-896d-831192f1fd03" value="name character varying NOT NULL" style="" parent="public.product.4" vertex="1">
          <mxGeometry x="30" width="220" height="30" as="geometry">
            <mxRectangle width="220" height="30" as="alternateBounds" />
          </mxGeometry>
        </mxCell>
        <mxCell id="public.product.5" value="120" style="shape=partialRectangle;collapsible=0;dropTarget=0;pointerEvents=0;fillColor=none;points=[[0,0.5],[1,0.5]];portConstraint=eastwest;top=0;left=0;right=0;bottom=1;" parent="public.product" vertex="1">
          <mxGeometry y="150" width="250" height="30" as="geometry" />
        </mxCell>
        <mxCell id="596e7e06-d39f-dd73-c17b-3f866dd9137a" value="" style="shape=partialRectangle;overflow=hidden;connectable=0;fillColor=none;top=0;left=0;bottom=0;right=0;fontStyle=1;" parent="public.product.5" vertex="1">
          <mxGeometry width="30" height="30" as="geometry">
            <mxRectangle width="30" height="30" as="alternateBounds" />
          </mxGeometry>
        </mxCell>
        <mxCell id="45612748-4d38-9b14-34af-7f3c6ed0ef5a" value="production_date date NOT NULL" style="" parent="public.product.5" vertex="1">
          <mxGeometry x="30" width="220" height="30" as="geometry">
            <mxRectangle width="220" height="30" as="alternateBounds" />
          </mxGeometry>
        </mxCell>
        <mxCell id="public.product.6" value="150" style="shape=partialRectangle;collapsible=0;dropTarget=0;pointerEvents=0;fillColor=none;points=[[0,0.5],[1,0.5]];portConstraint=eastwest;top=0;left=0;right=0;bottom=1;" parent="public.product" vertex="1">
          <mxGeometry y="180" width="250" height="30" as="geometry" />
        </mxCell>
        <mxCell id="1e7ac23a-9cca-1079-ae54-8155b2b82090" value="" style="shape=partialRectangle;overflow=hidden;connectable=0;fillColor=none;top=0;left=0;bottom=0;right=0;fontStyle=1;" parent="public.product.6" vertex="1">
          <mxGeometry width="30" height="30" as="geometry">
            <mxRectangle width="30" height="30" as="alternateBounds" />
          </mxGeometry>
        </mxCell>
        <mxCell id="88657e4e-5b98-9d54-dcfc-68c28c1ab2dd" value="quantity integer NOT NULL" style="" parent="public.product.6" vertex="1">
          <mxGeometry x="30" width="220" height="30" as="geometry">
            <mxRectangle width="220" height="30" as="alternateBounds" />
          </mxGeometry>
        </mxCell>
        <mxCell id="public.product.7" value="180" style="shape=partialRectangle;collapsible=0;dropTarget=0;pointerEvents=0;fillColor=none;points=[[0,0.5],[1,0.5]];portConstraint=eastwest;top=0;left=0;right=0;bottom=1;" parent="public.product" vertex="1">
          <mxGeometry y="210" width="250" height="30" as="geometry" />
        </mxCell>
        <mxCell id="bba2bbf5-fbbb-bada-fa1a-9b48938b6f64" value="" style="shape=partialRectangle;overflow=hidden;connectable=0;fillColor=none;top=0;left=0;bottom=0;right=0;fontStyle=1;" parent="public.product.7" vertex="1">
          <mxGeometry width="30" height="30" as="geometry">
            <mxRectangle width="30" height="30" as="alternateBounds" />
          </mxGeometry>
        </mxCell>
        <mxCell id="97c2b5c0-30c6-8603-ef11-f2769a917d45" value="brand character varying NOT NULL" style="" parent="public.product.7" vertex="1">
          <mxGeometry x="30" width="220" height="30" as="geometry">
            <mxRectangle width="220" height="30" as="alternateBounds" />
          </mxGeometry>
        </mxCell>
        <mxCell id="public.product.8" value="210" style="shape=partialRectangle;collapsible=0;dropTarget=0;pointerEvents=0;fillColor=none;points=[[0,0.5],[1,0.5]];portConstraint=eastwest;top=0;left=0;right=0;bottom=1;" parent="public.product" vertex="1">
          <mxGeometry y="240" width="250" height="30" as="geometry" />
        </mxCell>
        <mxCell id="b2ece2e3-0c98-8dd0-20ba-cbfb3240b643" value="" style="shape=partialRectangle;overflow=hidden;connectable=0;fillColor=none;top=0;left=0;bottom=0;right=0;fontStyle=1;" parent="public.product.8" vertex="1">
          <mxGeometry width="30" height="30" as="geometry">
            <mxRectangle width="30" height="30" as="alternateBounds" />
          </mxGeometry>
        </mxCell>
        <mxCell id="d60951c1-a34e-4683-bd9b-387a12619cbf" value="description text NOT NULL" style="" parent="public.product.8" vertex="1">
          <mxGeometry x="30" width="220" height="30" as="geometry">
            <mxRectangle width="220" height="30" as="alternateBounds" />
          </mxGeometry>
        </mxCell>
        <mxCell id="public.product_discount" value="public.product_discount" style="shape=table;startSize=30;container=1;collapsible=1;childLayout=tableLayout;fixedRows=1;rowLines=0;fontStyle=1;align=center;resizeLast=1;" parent="1" vertex="1">
          <mxGeometry x="1110.0012523409473" y="1110.0039958101177" width="250" height="90" as="geometry" />
        </mxCell>
        <mxCell id="public.product_discount.1" value="0" style="shape=partialRectangle;collapsible=0;dropTarget=0;pointerEvents=0;fillColor=none;points=[[0,0.5],[1,0.5]];portConstraint=eastwest;top=0;left=0;right=0;bottom=1;" parent="public.product_discount" vertex="1">
          <mxGeometry y="30" width="250" height="30" as="geometry" />
        </mxCell>
        <mxCell id="a3ac1c4f-8318-bde7-80f9-4d9d0b1b0100" value="PK" style="shape=partialRectangle;overflow=hidden;connectable=0;fillColor=none;top=0;left=0;bottom=0;right=0;fontStyle=1;" parent="public.product_discount.1" vertex="1">
          <mxGeometry width="30" height="30" as="geometry">
            <mxRectangle width="30" height="30" as="alternateBounds" />
          </mxGeometry>
        </mxCell>
        <mxCell id="ce06cc65-fba1-e32b-da89-9b6897cea2bf" value="product_id integer NOT NULL" style="" parent="public.product_discount.1" vertex="1">
          <mxGeometry x="30" width="220" height="30" as="geometry">
            <mxRectangle width="220" height="30" as="alternateBounds" />
          </mxGeometry>
        </mxCell>
        <mxCell id="public.product_discount.2" value="30" style="shape=partialRectangle;collapsible=0;dropTarget=0;pointerEvents=0;fillColor=none;points=[[0,0.5],[1,0.5]];portConstraint=eastwest;top=0;left=0;right=0;bottom=1;" parent="public.product_discount" vertex="1">
          <mxGeometry y="60" width="250" height="30" as="geometry" />
        </mxCell>
        <mxCell id="85a1209f-ea11-b178-5204-8b84a21f3de3" value="PK" style="shape=partialRectangle;overflow=hidden;connectable=0;fillColor=none;top=0;left=0;bottom=0;right=0;fontStyle=1;" parent="public.product_discount.2" vertex="1">
          <mxGeometry width="30" height="30" as="geometry">
            <mxRectangle width="30" height="30" as="alternateBounds" />
          </mxGeometry>
        </mxCell>
        <mxCell id="08976c11-c7ac-66b6-aa3e-ebb6ce81df11" value="discount_id integer NOT NULL" style="" parent="public.product_discount.2" vertex="1">
          <mxGeometry x="30" width="220" height="30" as="geometry">
            <mxRectangle width="220" height="30" as="alternateBounds" />
          </mxGeometry>
        </mxCell>
        <mxCell id="public.review" value="public.review" style="shape=table;startSize=56;container=1;collapsible=1;childLayout=tableLayout;fixedRows=1;rowLines=0;fontStyle=1;align=center;resizeLast=1;" parent="1" vertex="1">
          <mxGeometry x="440" y="570" width="280" height="236" as="geometry" />
        </mxCell>
        <mxCell id="public.review.1" value="0" style="shape=partialRectangle;collapsible=0;dropTarget=0;pointerEvents=0;fillColor=none;points=[[0,0.5],[1,0.5]];portConstraint=eastwest;top=0;left=0;right=0;bottom=1;" parent="public.review" vertex="1">
          <mxGeometry y="56" width="280" height="30" as="geometry" />
        </mxCell>
        <mxCell id="6325071d-e097-440a-cd24-7de3c92a5d16" value="PK" style="shape=partialRectangle;overflow=hidden;connectable=0;fillColor=none;top=0;left=0;bottom=0;right=0;fontStyle=1;" parent="public.review.1" vertex="1">
          <mxGeometry width="30" height="30" as="geometry">
            <mxRectangle width="30" height="30" as="alternateBounds" />
          </mxGeometry>
        </mxCell>
        <mxCell id="823d0a6c-e9b0-79b3-37f3-bfa993df5711" value="review_id integer NOT NULL" style="" parent="public.review.1" vertex="1">
          <mxGeometry x="30" width="250" height="30" as="geometry">
            <mxRectangle width="250" height="30" as="alternateBounds" />
          </mxGeometry>
        </mxCell>
        <mxCell id="public.review.2" value="30" style="shape=partialRectangle;collapsible=0;dropTarget=0;pointerEvents=0;fillColor=none;points=[[0,0.5],[1,0.5]];portConstraint=eastwest;top=0;left=0;right=0;bottom=1;" parent="public.review" vertex="1">
          <mxGeometry y="86" width="280" height="30" as="geometry" />
        </mxCell>
        <mxCell id="ca06b73b-a36c-83c2-e369-bc7a7584e114" value="FK" style="shape=partialRectangle;overflow=hidden;connectable=0;fillColor=none;top=0;left=0;bottom=0;right=0;fontStyle=1;" parent="public.review.2" vertex="1">
          <mxGeometry width="30" height="30" as="geometry">
            <mxRectangle width="30" height="30" as="alternateBounds" />
          </mxGeometry>
        </mxCell>
        <mxCell id="1f95ea88-1ca9-f23f-f2e9-826c02158bbc" value="product_id integer NOT NULL" style="" parent="public.review.2" vertex="1">
          <mxGeometry x="30" width="250" height="30" as="geometry">
            <mxRectangle width="250" height="30" as="alternateBounds" />
          </mxGeometry>
        </mxCell>
        <mxCell id="public.review.3" value="60" style="shape=partialRectangle;collapsible=0;dropTarget=0;pointerEvents=0;fillColor=none;points=[[0,0.5],[1,0.5]];portConstraint=eastwest;top=0;left=0;right=0;bottom=1;" parent="public.review" vertex="1">
          <mxGeometry y="116" width="280" height="30" as="geometry" />
        </mxCell>
        <mxCell id="8f538608-d789-9aa2-7f12-988fbb40578e" value="FK" style="shape=partialRectangle;overflow=hidden;connectable=0;fillColor=none;top=0;left=0;bottom=0;right=0;fontStyle=1;" parent="public.review.3" vertex="1">
          <mxGeometry width="30" height="30" as="geometry">
            <mxRectangle width="30" height="30" as="alternateBounds" />
          </mxGeometry>
        </mxCell>
        <mxCell id="90802994-31cd-1802-ec97-c5ae58fa0ab5" value="client_id integer NOT NULL" style="" parent="public.review.3" vertex="1">
          <mxGeometry x="30" width="250" height="30" as="geometry">
            <mxRectangle width="250" height="30" as="alternateBounds" />
          </mxGeometry>
        </mxCell>
        <mxCell id="public.review.4" value="90" style="shape=partialRectangle;collapsible=0;dropTarget=0;pointerEvents=0;fillColor=none;points=[[0,0.5],[1,0.5]];portConstraint=eastwest;top=0;left=0;right=0;bottom=1;" parent="public.review" vertex="1">
          <mxGeometry y="146" width="280" height="30" as="geometry" />
        </mxCell>
        <mxCell id="65fb8c89-4f25-4c4a-8206-7eb53ffbe624" value="" style="shape=partialRectangle;overflow=hidden;connectable=0;fillColor=none;top=0;left=0;bottom=0;right=0;fontStyle=1;" parent="public.review.4" vertex="1">
          <mxGeometry width="30" height="30" as="geometry">
            <mxRectangle width="30" height="30" as="alternateBounds" />
          </mxGeometry>
        </mxCell>
        <mxCell id="3be67bba-1ada-bfdb-76c9-85eb6b2eb02b" value="content text NOT NULL" style="" parent="public.review.4" vertex="1">
          <mxGeometry x="30" width="250" height="30" as="geometry">
            <mxRectangle width="250" height="30" as="alternateBounds" />
          </mxGeometry>
        </mxCell>
        <mxCell id="public.review.5" value="120" style="shape=partialRectangle;collapsible=0;dropTarget=0;pointerEvents=0;fillColor=none;points=[[0,0.5],[1,0.5]];portConstraint=eastwest;top=0;left=0;right=0;bottom=1;" parent="public.review" vertex="1">
          <mxGeometry y="176" width="280" height="30" as="geometry" />
        </mxCell>
        <mxCell id="6456baca-2cfa-484a-a47b-6c98addaf869" value="" style="shape=partialRectangle;overflow=hidden;connectable=0;fillColor=none;top=0;left=0;bottom=0;right=0;fontStyle=1;" parent="public.review.5" vertex="1">
          <mxGeometry width="30" height="30" as="geometry">
            <mxRectangle width="30" height="30" as="alternateBounds" />
          </mxGeometry>
        </mxCell>
        <mxCell id="ce455183-a1a3-4cef-8944-e5a16ac612fb" value="rating integer NOT NULL" style="" parent="public.review.5" vertex="1">
          <mxGeometry x="30" width="250" height="30" as="geometry">
            <mxRectangle width="250" height="30" as="alternateBounds" />
          </mxGeometry>
        </mxCell>
        <mxCell id="public.review.6" value="150" style="shape=partialRectangle;collapsible=0;dropTarget=0;pointerEvents=0;fillColor=none;points=[[0,0.5],[1,0.5]];portConstraint=eastwest;top=0;left=0;right=0;bottom=1;" parent="public.review" vertex="1">
          <mxGeometry y="206" width="280" height="30" as="geometry" />
        </mxCell>
        <mxCell id="34500d77-2ad3-6de7-186d-d25d79e49fa2" value="" style="shape=partialRectangle;overflow=hidden;connectable=0;fillColor=none;top=0;left=0;bottom=0;right=0;fontStyle=1;" parent="public.review.6" vertex="1">
          <mxGeometry width="30" height="30" as="geometry">
            <mxRectangle width="30" height="30" as="alternateBounds" />
          </mxGeometry>
        </mxCell>
        <mxCell id="d7208a82-e17c-573c-6069-bcb8c2b63ffb" value="date timestamp without time zone NOT NULL" style="" parent="public.review.6" vertex="1">
          <mxGeometry x="30" width="250" height="30" as="geometry">
            <mxRectangle width="250" height="30" as="alternateBounds" />
          </mxGeometry>
        </mxCell>
        <mxCell id="public.review_log" value="public.review_log" style="shape=table;startSize=72;container=1;collapsible=1;childLayout=tableLayout;fixedRows=1;rowLines=0;fontStyle=1;align=center;resizeLast=1;" parent="1" vertex="1">
          <mxGeometry x="435" y="192" width="285" height="358" as="geometry">
            <mxRectangle x="425" y="220" width="130" height="30" as="alternateBounds" />
          </mxGeometry>
        </mxCell>
        <mxCell id="public.review_log.1" value="0" style="shape=partialRectangle;collapsible=0;dropTarget=0;pointerEvents=0;fillColor=none;points=[[0,0.5],[1,0.5]];portConstraint=eastwest;top=0;left=0;right=0;bottom=1;" parent="public.review_log" vertex="1">
          <mxGeometry y="72" width="285" height="50" as="geometry" />
        </mxCell>
        <mxCell id="b0872fb2-625b-4880-6a56-325d67e7b003" value="PK" style="" parent="public.review_log.1" vertex="1">
          <mxGeometry width="34.199999999999996" height="50" as="geometry">
            <mxRectangle width="34.199999999999996" height="50" as="alternateBounds" />
          </mxGeometry>
        </mxCell>
        <mxCell id="c7e57857-984f-8556-38d5-a9000a791de3" value="log_id integer NOT NULL" style="" parent="public.review_log.1" vertex="1">
          <mxGeometry x="34.199999999999996" width="250.8" height="50" as="geometry">
            <mxRectangle width="250.8" height="50" as="alternateBounds" />
          </mxGeometry>
        </mxCell>
        <mxCell id="public.review_log.2" value="30" style="shape=partialRectangle;collapsible=0;dropTarget=0;pointerEvents=0;fillColor=none;points=[[0,0.5],[1,0.5]];portConstraint=eastwest;top=0;left=0;right=0;bottom=1;" parent="public.review_log" vertex="1">
          <mxGeometry y="122" width="285" height="30" as="geometry" />
        </mxCell>
        <mxCell id="49fe4fc3-27b0-85f8-dc9f-be3b6a4c7400" value="" style="shape=partialRectangle;overflow=hidden;connectable=0;fillColor=none;top=0;left=0;bottom=0;right=0;fontStyle=1;" parent="public.review_log.2" vertex="1">
          <mxGeometry width="34.199999999999996" height="30" as="geometry">
            <mxRectangle width="34.199999999999996" height="30" as="alternateBounds" />
          </mxGeometry>
        </mxCell>
        <mxCell id="a0b760bb-53bd-1c2f-e541-0d6607688474" value="operation text NOT NULL" style="" parent="public.review_log.2" vertex="1">
          <mxGeometry x="34.199999999999996" width="250.8" height="30" as="geometry">
            <mxRectangle width="250.8" height="30" as="alternateBounds" />
          </mxGeometry>
        </mxCell>
        <mxCell id="public.review_log.3" value="60" style="shape=partialRectangle;collapsible=0;dropTarget=0;pointerEvents=0;fillColor=none;points=[[0,0.5],[1,0.5]];portConstraint=eastwest;top=0;left=0;right=0;bottom=1;" parent="public.review_log" vertex="1">
          <mxGeometry y="152" width="285" height="30" as="geometry" />
        </mxCell>
        <mxCell id="3e3a9136-7154-0b8b-dee6-1b30e2cac894" value="" style="shape=partialRectangle;overflow=hidden;connectable=0;fillColor=none;top=0;left=0;bottom=0;right=0;fontStyle=1;" parent="public.review_log.3" vertex="1">
          <mxGeometry width="34.199999999999996" height="30" as="geometry">
            <mxRectangle width="34.199999999999996" height="30" as="alternateBounds" />
          </mxGeometry>
        </mxCell>
        <mxCell id="a28e2ab6-db2c-5e2a-eb35-5f8b3a637f5c" value="review_id integer NOT NULL" style="" parent="public.review_log.3" vertex="1">
          <mxGeometry x="34.199999999999996" width="250.8" height="30" as="geometry">
            <mxRectangle width="250.8" height="30" as="alternateBounds" />
          </mxGeometry>
        </mxCell>
        <mxCell id="public.review_log.4" value="90" style="shape=partialRectangle;collapsible=0;dropTarget=0;pointerEvents=0;fillColor=none;points=[[0,0.5],[1,0.5]];portConstraint=eastwest;top=0;left=0;right=0;bottom=1;" parent="public.review_log" vertex="1">
          <mxGeometry y="182" width="285" height="30" as="geometry" />
        </mxCell>
        <mxCell id="0ca42882-69b1-f755-cb9d-a7c2d4134c74" value="" style="shape=partialRectangle;overflow=hidden;connectable=0;fillColor=none;top=0;left=0;bottom=0;right=0;fontStyle=1;" parent="public.review_log.4" vertex="1">
          <mxGeometry width="34.199999999999996" height="30" as="geometry">
            <mxRectangle width="34.199999999999996" height="30" as="alternateBounds" />
          </mxGeometry>
        </mxCell>
        <mxCell id="6990c2bc-faba-3758-b01f-1d5d6405e37b" value="product_id integer NOT NULL" style="" parent="public.review_log.4" vertex="1">
          <mxGeometry x="34.199999999999996" width="250.8" height="30" as="geometry">
            <mxRectangle width="250.8" height="30" as="alternateBounds" />
          </mxGeometry>
        </mxCell>
        <mxCell id="public.review_log.5" value="120" style="shape=partialRectangle;collapsible=0;dropTarget=0;pointerEvents=0;fillColor=none;points=[[0,0.5],[1,0.5]];portConstraint=eastwest;top=0;left=0;right=0;bottom=1;" parent="public.review_log" vertex="1">
          <mxGeometry y="212" width="285" height="26" as="geometry" />
        </mxCell>
        <mxCell id="2a7c4eca-330e-92a5-3850-50d24e5430e8" value="" style="shape=partialRectangle;overflow=hidden;connectable=0;fillColor=none;top=0;left=0;bottom=0;right=0;fontStyle=1;" parent="public.review_log.5" vertex="1">
          <mxGeometry width="34.199999999999996" height="26" as="geometry">
            <mxRectangle width="34.199999999999996" height="26" as="alternateBounds" />
          </mxGeometry>
        </mxCell>
        <mxCell id="aa28f2d7-25de-2ec0-f120-a7782309425b" value="client_id integer NOT NULL" style="" parent="public.review_log.5" vertex="1">
          <mxGeometry x="34.199999999999996" width="250.8" height="26" as="geometry">
            <mxRectangle width="250.8" height="26" as="alternateBounds" />
          </mxGeometry>
        </mxCell>
        <mxCell id="public.review_log.6" value="150" style="" parent="public.review_log" vertex="1">
          <mxGeometry y="238" width="285" height="30" as="geometry" />
        </mxCell>
        <mxCell id="fa999f79-19b5-d96f-1cd4-488d883279e3" value="content text NOT NULL" style="" parent="public.review_log.6" vertex="1">
          <mxGeometry width="285" height="30" as="geometry">
            <mxRectangle width="285" height="30" as="alternateBounds" />
          </mxGeometry>
        </mxCell>
        <mxCell id="public.review_log.7" value="180" style="" parent="public.review_log" vertex="1">
          <mxGeometry y="268" width="285" height="30" as="geometry" />
        </mxCell>
        <mxCell id="3381f01e-acc6-30bb-2099-0ecfcf318174" value="" style="" parent="public.review_log.7" vertex="1">
          <mxGeometry width="34.199999999999996" height="30" as="geometry">
            <mxRectangle width="34.199999999999996" height="30" as="alternateBounds" />
          </mxGeometry>
        </mxCell>
        <mxCell id="c1292002-f818-be38-ae2d-bb911ace4467" value="rating integer NOT NULL" style="" parent="public.review_log.7" vertex="1">
          <mxGeometry x="34.199999999999996" width="250.8" height="30" as="geometry">
            <mxRectangle width="250.8" height="30" as="alternateBounds" />
          </mxGeometry>
        </mxCell>
        <mxCell id="public.review_log.8" value="210" style="shape=partialRectangle;collapsible=0;dropTarget=0;pointerEvents=0;fillColor=none;points=[[0,0.5],[1,0.5]];portConstraint=eastwest;top=0;left=0;right=0;bottom=1;" parent="public.review_log" vertex="1">
          <mxGeometry y="298" width="285" height="30" as="geometry" />
        </mxCell>
        <mxCell id="c9c8d741-ee9d-f6bd-037f-b53ff8ba778b" value="" style="shape=partialRectangle;overflow=hidden;connectable=0;fillColor=none;top=0;left=0;bottom=0;right=0;fontStyle=1;" parent="public.review_log.8" vertex="1">
          <mxGeometry width="34.199999999999996" height="30" as="geometry">
            <mxRectangle width="34.199999999999996" height="30" as="alternateBounds" />
          </mxGeometry>
        </mxCell>
        <mxCell id="33ce7239-f80c-74b7-78f8-9290bb74dd4a" value="date timestamp without time zone NOT NULL" style="" parent="public.review_log.8" vertex="1">
          <mxGeometry x="34.199999999999996" width="250.8" height="30" as="geometry">
            <mxRectangle width="250.8" height="30" as="alternateBounds" />
          </mxGeometry>
        </mxCell>
        <mxCell id="public.review_log.9" value="240" style="shape=partialRectangle;collapsible=0;dropTarget=0;pointerEvents=0;fillColor=none;points=[[0,0.5],[1,0.5]];portConstraint=eastwest;top=0;left=0;right=0;bottom=1;" parent="public.review_log" vertex="1">
          <mxGeometry y="328" width="285" height="30" as="geometry" />
        </mxCell>
        <mxCell id="cf1bfc86-3325-5c68-9cb2-72a64a053b3e" value="" style="shape=partialRectangle;overflow=hidden;connectable=0;fillColor=none;top=0;left=0;bottom=0;right=0;fontStyle=1;" parent="public.review_log.9" vertex="1">
          <mxGeometry width="34.199999999999996" height="30" as="geometry">
            <mxRectangle width="34.199999999999996" height="30" as="alternateBounds" />
          </mxGeometry>
        </mxCell>
        <mxCell id="64d17d15-2a3c-30bc-148a-2006c26f8c20" value="modified_date timestamp without time zone " style="" parent="public.review_log.9" vertex="1">
          <mxGeometry x="34.199999999999996" width="250.8" height="30" as="geometry">
            <mxRectangle width="250.8" height="30" as="alternateBounds" />
          </mxGeometry>
        </mxCell>
        <mxCell id="7f88d44c-0e6f-9fd0-647b-7af53673f62e" value="" style="edgeStyle=entityRelationEdgeStyle;endArrow=ERzeroToMany;startArrow=ERone;endFill=1;startFill=0;" parent="1" source="public.cart.1" target="public.cart_item.2" edge="1">
          <mxGeometry width="100" height="100" relative="1" as="geometry">
            <mxPoint x="5.799999237060547" y="571.9031219482422" as="sourcePoint" />
            <mxPoint x="5.799999237060547" y="917.9531402587891" as="targetPoint" />
          </mxGeometry>
        </mxCell>
        <mxCell id="579c8419-5327-b476-413d-eb0933a75572" value="" style="edgeStyle=entityRelationEdgeStyle;endArrow=ERzeroToMany;startArrow=ERone;endFill=1;startFill=0;" parent="1" source="public.product.1" target="public.cart_item.3" edge="1">
          <mxGeometry width="100" height="100" relative="1" as="geometry">
            <mxPoint x="680.8000633736349" y="497.8750453916044" as="sourcePoint" />
            <mxPoint x="5.799999237060547" y="942.7531280517578" as="targetPoint" />
          </mxGeometry>
        </mxCell>
        <mxCell id="6ec4d561-1659-1bb6-e436-e9e84968e859" value="" style="edgeStyle=entityRelationEdgeStyle;endArrow=ERzeroToMany;startArrow=ERone;endFill=1;startFill=0;" parent="1" source="public.employee_role.1" target="public.employee.2" edge="1">
          <mxGeometry width="100" height="100" relative="1" as="geometry">
            <mxPoint x="455.79999923706055" y="195.0281219482422" as="sourcePoint" />
            <mxPoint x="455.80000152203775" y="498.24992735961644" as="targetPoint" />
          </mxGeometry>
        </mxCell>
        <mxCell id="decf1c8f-1e95-f6b8-a5de-ef0c0f745e97" value="" style="edgeStyle=entityRelationEdgeStyle;endArrow=ERzeroToMany;startArrow=ERone;endFill=1;startFill=0;" parent="1" source="public.client.1" target="public.order.2" edge="1">
          <mxGeometry width="100" height="100" relative="1" as="geometry">
            <mxPoint x="230.80003232540068" y="127.38751682070824" as="sourcePoint" />
            <mxPoint x="230.80003232540068" y="578.2875054950672" as="targetPoint" />
          </mxGeometry>
        </mxCell>
        <mxCell id="95976771-021f-a422-0ac1-4d3fb3fba7e3" value="" style="edgeStyle=entityRelationEdgeStyle;endArrow=ERzeroToMany;startArrow=ERone;endFill=1;startFill=0;" parent="1" source="public.order.1" target="public.order_item.2" edge="1">
          <mxGeometry width="100" height="100" relative="1" as="geometry">
            <mxPoint x="230.80003232540068" y="553.4875715662153" as="sourcePoint" />
            <mxPoint x="455.79999923706055" y="917.9531402587891" as="targetPoint" />
          </mxGeometry>
        </mxCell>
        <mxCell id="3e2ce084-0d1a-ac25-41f9-bfa620a51855" value="" style="edgeStyle=entityRelationEdgeStyle;endArrow=ERzeroToMany;startArrow=ERone;endFill=1;startFill=0;" parent="1" source="public.product.1" target="public.order_item.3" edge="1">
          <mxGeometry width="100" height="100" relative="1" as="geometry">
            <mxPoint x="680.8000633736349" y="497.8750453916044" as="sourcePoint" />
            <mxPoint x="455.79999923706055" y="942.7531280517578" as="targetPoint" />
          </mxGeometry>
        </mxCell>
        <mxCell id="cf0f3145-d94f-c67b-d1ae-4e4e3b709920" value="" style="edgeStyle=entityRelationEdgeStyle;endArrow=ERzeroToMany;startArrow=ERone;endFill=1;startFill=0;" parent="1" source="public.product_category.1" target="public.product.2" edge="1">
          <mxGeometry width="100" height="100" relative="1" as="geometry">
            <mxPoint x="680.8000633736349" y="195.0249890092931" as="sourcePoint" />
            <mxPoint x="680.8000633736349" y="528.6874523274433" as="targetPoint" />
          </mxGeometry>
        </mxCell>
        <mxCell id="c1822f66-f731-0c93-45ba-f53ba8e53f74" value="" style="edgeStyle=entityRelationEdgeStyle;endArrow=ERzeroToMany;startArrow=ERone;endFill=1;startFill=0;" parent="1" source="public.product.1" target="public.product_discount.1" edge="1">
          <mxGeometry width="100" height="100" relative="1" as="geometry">
            <mxPoint x="680.8000633736349" y="497.8750453916044" as="sourcePoint" />
            <mxPoint x="1079.5499992370605" y="930.3562469482422" as="targetPoint" />
          </mxGeometry>
        </mxCell>
        <mxCell id="33add291-8175-aaa8-c101-1d92ae9d9b18" value="" style="edgeStyle=entityRelationEdgeStyle;endArrow=ERzeroToMany;startArrow=ERone;endFill=1;startFill=0;" parent="1" source="public.client.1" target="public.review.3" edge="1">
          <mxGeometry width="100" height="100" relative="1" as="geometry">
            <mxPoint x="230.80003232540068" y="127.38751682070824" as="sourcePoint" />
            <mxPoint x="854.5500725305792" y="924.3375663404884" as="targetPoint" />
          </mxGeometry>
        </mxCell>
        <mxCell id="0132aab0-11b1-345c-dba3-91ad61b230d2" value="" style="edgeStyle=entityRelationEdgeStyle;endArrow=ERzeroToMany;startArrow=ERone;endFill=1;startFill=0;" parent="1" source="public.product.1" target="public.review.2" edge="1">
          <mxGeometry width="100" height="100" relative="1" as="geometry">
            <mxPoint x="680.8000633736349" y="497.8750453916044" as="sourcePoint" />
            <mxPoint x="854.5500725305792" y="899.5373544467566" as="targetPoint" />
          </mxGeometry>
        </mxCell>
        <mxCell id="VqQebJ0HGXR-MDs0Irp4-1" value="" style="edgeStyle=entityRelationEdgeStyle;endArrow=ERzeroToMany;startArrow=ERone;endFill=1;startFill=0;entryX=1;entryY=0.5;entryDx=0;entryDy=0;" parent="1" source="public.discount.1" target="08976c11-c7ac-66b6-aa3e-ebb6ce81df11" edge="1">
          <mxGeometry width="100" height="100" relative="1" as="geometry">
            <mxPoint x="924" y="1868" as="sourcePoint" />
            <mxPoint x="745" y="1542" as="targetPoint" />
            <Array as="points">
              <mxPoint x="900" y="1000" />
            </Array>
          </mxGeometry>
        </mxCell>
        <mxCell id="public.product_category" value="public.product_category" style="shape=table;startSize=30;container=1;collapsible=1;childLayout=tableLayout;fixedRows=1;rowLines=0;fontStyle=1;align=center;resizeLast=1;" parent="1" vertex="1">
          <mxGeometry x="799.9986045685962" y="1020.0079111127804" width="250" height="90" as="geometry" />
        </mxCell>
        <mxCell id="public.product_category.1" value="0" style="shape=partialRectangle;collapsible=0;dropTarget=0;pointerEvents=0;fillColor=none;points=[[0,0.5],[1,0.5]];portConstraint=eastwest;top=0;left=0;right=0;bottom=1;" parent="public.product_category" vertex="1">
          <mxGeometry y="30" width="250" height="30" as="geometry" />
        </mxCell>
        <mxCell id="51972577-c5fe-9786-ce7f-0e6c07eb4b9c" value="PK" style="shape=partialRectangle;overflow=hidden;connectable=0;fillColor=none;top=0;left=0;bottom=0;right=0;fontStyle=1;" parent="public.product_category.1" vertex="1">
          <mxGeometry width="30" height="30" as="geometry">
            <mxRectangle width="30" height="30" as="alternateBounds" />
          </mxGeometry>
        </mxCell>
        <mxCell id="f6f21eb3-f198-789b-9ac8-50471a3fd036" value="product_category_id integer NOT NULL" style="" parent="public.product_category.1" vertex="1">
          <mxGeometry x="30" width="220" height="30" as="geometry">
            <mxRectangle width="220" height="30" as="alternateBounds" />
          </mxGeometry>
        </mxCell>
        <mxCell id="public.product_category.2" value="30" style="shape=partialRectangle;collapsible=0;dropTarget=0;pointerEvents=0;fillColor=none;points=[[0,0.5],[1,0.5]];portConstraint=eastwest;top=0;left=0;right=0;bottom=1;" parent="public.product_category" vertex="1">
          <mxGeometry y="60" width="250" height="30" as="geometry" />
        </mxCell>
        <mxCell id="1460293f-cbd4-5804-f430-78bb683db76c" value="" style="shape=partialRectangle;overflow=hidden;connectable=0;fillColor=none;top=0;left=0;bottom=0;right=0;fontStyle=1;" parent="public.product_category.2" vertex="1">
          <mxGeometry width="30" height="30" as="geometry">
            <mxRectangle width="30" height="30" as="alternateBounds" />
          </mxGeometry>
        </mxCell>
        <mxCell id="d34ea029-04eb-a6dd-42e2-effbf2fb6121" value="name character varying NOT NULL" style="" parent="public.product_category.2" vertex="1">
          <mxGeometry x="30" width="220" height="30" as="geometry">
            <mxRectangle width="220" height="30" as="alternateBounds" />
          </mxGeometry>
        </mxCell>
        <mxCell id="VqQebJ0HGXR-MDs0Irp4-9" value="" style="" parent="1" vertex="1">
          <mxGeometry x="435" y="430" width="34.2" height="30" as="geometry">
            <mxRectangle width="34.199999999999996" height="30" as="alternateBounds" />
          </mxGeometry>
        </mxCell>
        <mxCell id="JsR6YpXmWq76RtItAply-1" value="" style="edgeStyle=entityRelationEdgeStyle;fontSize=12;html=1;endArrow=ERmandOne;startArrow=ERmandOne;rounded=0;entryX=0;entryY=0.5;entryDx=0;entryDy=0;exitX=1;exitY=0.5;exitDx=0;exitDy=0;" edge="1" parent="1" source="public.client.1" target="public.cart.2">
          <mxGeometry width="100" height="100" relative="1" as="geometry">
            <mxPoint x="845" y="240" as="sourcePoint" />
            <mxPoint x="945" y="140" as="targetPoint" />
          </mxGeometry>
        </mxCell>
      </root>
    </mxGraphModel>
  </diagram>
</mxfile>
